<svg width="1485" height="335" viewBox="0 0 1485 335" fill="none" xmlns="http://www.w3.org/2000/svg">
<path d="M665.352 4.53332C639.752 13.2 616.418 24.6667 592.018 40.8C574.952 52.1333 568.818 57.8667 567.352 64.4L566.285 69.0667L576.552 60.9333C602.952 39.8667 641.618 19.3333 672.418 9.99999C676.018 8.93332 676.285 11.0667 673.218 18.6667C669.485 27.8667 672.152 26 677.218 15.8667C682.152 6.13332 683.352 -1.21593e-05 680.418 -1.21593e-05C679.485 0.133321 672.685 2.13332 665.352 4.53332Z" fill="current"/>
<path d="M236.149 8.93328C234.149 14.6666 234.149 16.1333 236.016 25.1999C238.816 38.9333 254.949 143.2 256.816 159.333C258.016 171.2 258.016 172.533 255.749 174.933C249.482 182 237.616 183.467 229.882 178.267C227.349 176.667 222.149 170.667 218.416 164.933L211.349 154.533L209.882 158.267C204.149 172.933 204.016 170.8 211.882 187.2C219.882 204 222.549 211.333 221.616 213.867C220.149 217.6 187.216 246.267 178.149 251.6C152.816 266.8 130.282 266.4 122.282 250.533C117.482 240.933 117.216 232.533 121.216 212.4C126.016 188.8 126.016 167.6 121.216 151.867C120.682 150.133 122.149 149.6 128.282 148.933C139.616 147.733 153.482 142.8 175.882 132C186.816 126.8 200.682 120.8 206.682 118.933L217.616 115.333L223.882 105.333L230.016 95.3333L217.616 93.8666C202.816 91.9999 191.482 89.3333 172.282 83.3333C148.416 75.7333 138.016 73.9999 129.616 75.8666C114.549 79.1999 104.682 91.5999 104.682 107.2V115.2L96.8156 106.933C87.4823 97.1999 84.8156 96.6666 76.4156 103.067C66.0156 111.067 48.8156 134.533 38.8156 154.267C36.2823 159.467 33.0823 164.4 31.8823 165.067C26.549 168 12.549 183.6 8.54896 191.067C4.28229 198.933 4.01562 200.133 4.01562 212.667C4.01562 229.067 6.81563 238 22.6823 272.667C38.549 307.067 46.0156 326.267 46.0156 332.267C46.0156 333.6 46.6823 334.667 47.349 334.667C49.8823 334.667 48.6823 321.467 44.8156 306.4C41.0823 292.4 33.8823 272.8 25.349 254C15.2156 231.733 8.68229 215.067 8.68229 211.733C8.68229 202.8 15.0823 193.467 25.8823 186.533L31.8823 182.667L33.6156 189.467C34.549 193.2 36.6823 198 38.149 200.133C41.0823 204.4 62.549 216 67.349 216C70.6823 216 70.6823 213.733 68.0156 198C65.349 182.8 60.8156 173.333 52.6823 166.4L46.2823 160.8L50.949 151.467C60.949 131.6 71.8823 117.333 77.2156 117.333C78.8156 117.333 85.349 122.8 93.349 130.667C101.882 138.933 109.216 144.933 112.949 146.667L119.082 149.333L120.682 160.8C122.549 173.867 121.882 183.2 117.349 206C111.882 233.467 111.349 238.533 112.682 248C114.282 259.333 117.749 267.467 123.482 273.2C129.616 279.2 135.082 281.333 144.549 281.333C162.816 281.333 186.149 268.133 213.216 242.4C226.549 229.733 227.216 228 227.349 209.067V197.467L236.016 197.733C240.816 197.867 244.682 198 244.682 198.133C244.682 198.133 243.082 202 241.216 206.667C229.482 235.6 230.016 259.467 242.682 274.267C258.816 293.067 281.082 287.467 316.682 255.733C323.616 249.6 340.416 233.6 354.016 220.4C379.616 195.467 394.149 182.267 394.949 183.2C395.216 183.467 393.616 189.867 391.482 197.467C386.549 214.667 386.149 217.067 384.682 230.933C382.816 249.467 386.416 263.2 395.882 273.067C403.349 281.2 410.949 283.333 424.149 281.467C434.949 279.867 446.149 275.2 458.016 267.333C469.349 259.867 493.216 237.467 496.282 231.467C497.616 228.8 498.682 222.267 499.082 212.667L499.749 197.867L506.816 198.4C510.949 198.8 515.749 198.267 518.016 197.333C527.082 193.6 534.282 180.267 535.882 164C536.816 154.533 535.482 142.4 528.016 93.9999C519.882 41.1999 519.216 35.7333 519.882 34.9333C520.282 34.5333 521.882 35.8666 523.482 37.7333C526.816 41.9999 528.682 42.2666 528.682 38.6666C528.682 35.0666 511.216 2.26661 510.016 3.59994C509.482 4.26661 508.149 7.33328 506.949 10.6666C504.949 15.8666 504.949 17.3333 506.549 21.9999C507.616 24.9333 510.016 37.4666 511.882 49.9999C513.749 62.3999 517.482 86.1333 520.016 102.667C529.349 161.467 530.416 171.733 527.349 175.333C522.416 181.333 510.682 183.2 503.082 179.2C498.149 176.667 494.149 172.133 488.416 162.933C486.016 159.2 483.749 156 483.216 156C482.282 156 476.682 170.133 476.682 172.667C476.682 173.733 479.482 180.133 483.082 186.933C486.549 193.733 490.416 202.667 491.749 206.533L494.149 213.867L485.082 223.067C460.016 248.4 435.082 262.933 416.682 263.067C406.416 263.067 401.349 260.8 395.616 253.867C387.349 243.867 386.949 227.2 394.149 198.667C398.282 182.267 400.149 178.8 406.949 174.4L411.349 171.733L410.549 181.733C409.616 191.6 409.749 191.867 413.616 195.733C417.749 200 425.082 202.667 432.416 202.667C436.016 202.667 436.682 202.133 436.682 199.6C436.549 197.067 430.949 175.067 428.016 165.867C427.216 163.2 428.949 162.267 447.616 154.4C458.816 149.6 473.882 143.333 481.082 140.533C494.816 135.2 495.482 134.667 503.082 121.733C506.682 115.6 506.949 114.667 504.949 114.133C474.282 104.933 446.016 99.3333 419.749 97.3333C392.016 95.1999 383.616 97.0666 376.149 107.067C372.282 112.4 372.282 126.533 376.282 134C379.349 139.733 387.082 147.467 396.282 154C399.482 156.267 402.016 158.4 402.016 158.933C402.016 159.467 400.416 160.8 398.282 161.867C388.149 167.067 362.282 188.667 336.549 213.6C303.749 245.333 292.816 254.4 280.949 260.267C263.616 268.8 248.949 264.267 240.416 247.333C236.816 240.4 237.749 226.4 242.682 210.667C245.616 201.467 247.349 198.533 252.016 194C258.682 187.733 261.082 183.333 263.216 173.6C265.349 163.2 265.082 150.533 262.016 130.533C258.949 110.4 252.149 65.4666 249.349 47.3333C248.416 40.6666 247.882 35.0666 248.149 34.7999C248.416 34.3999 250.549 35.8666 252.682 37.9999L256.682 41.8666V38.5333C256.682 35.3333 240.816 2.66661 239.082 2.66661C238.682 2.66661 237.349 5.46661 236.149 8.93328ZM166.149 101.333C176.682 104.4 186.816 107.333 188.549 107.867C191.082 108.667 188.549 110.133 173.882 116.4C150.149 126.4 142.016 129.067 131.882 130.133C121.349 131.2 116.549 129.467 113.616 123.2C110.949 117.867 110.682 108.267 112.816 103.467C113.749 101.6 116.816 98.7999 119.882 97.3333C128.149 93.0666 142.149 94.2666 166.149 101.333ZM444.682 119.867C451.616 121.333 460.682 123.733 464.682 125.2C470.682 127.2 471.482 127.867 469.349 128.8C467.882 129.333 460.149 132.267 452.016 135.467C444.016 138.533 432.682 143.333 426.816 146C416.549 150.933 416.282 150.933 413.349 148.533C386.416 126.8 379.616 120.533 381.082 119.067C384.949 115.2 425.082 115.733 444.682 119.867Z" fill="current"/>
<path d="M273.617 3.59997C273.217 4.26664 272.017 7.3333 270.95 10.4C269.217 15.2 269.217 16.9333 270.817 22.4C271.75 25.8666 277.217 58.4 282.817 94.6666C290.683 145.067 293.217 165.2 293.75 179.6C294.017 190.133 294.817 198.667 295.483 198.667C299.883 198.667 302.017 161.467 298.817 140C294.283 110 287.217 64.1333 285.35 52.8C282.283 34.2666 282.683 31.7333 287.617 38C290.55 41.7333 292.683 42.2666 292.683 39.3333C292.683 37.3333 281.617 14.5333 276.817 6.66664C275.483 4.26664 274.017 2.9333 273.617 3.59997Z" fill="current"/>
<path d="M542.819 9.19996C540.685 15.2 540.685 16.2666 542.552 22.8C543.619 26.8 545.752 38.1333 547.219 48C548.685 57.8666 553.219 87.5999 557.352 114C561.485 141.333 565.085 170 565.619 180.667C566.552 196.267 566.952 198.933 568.285 196.533C573.485 187.333 573.752 158.533 568.685 128C560.685 78.6666 554.552 36.5333 555.085 35.6C555.352 34.9333 557.219 36 559.219 37.8666C563.619 42.1333 564.685 42.2666 563.752 38.2666C562.952 34.6666 546.952 2.66663 545.885 2.66663C545.485 2.66663 544.152 5.59996 542.819 9.19996Z" fill="current"/>
<path d="M696.152 4.13333C692.285 14.5333 691.752 16.9333 692.952 19.8667C693.485 21.6 694.952 28.8 696.018 35.8667C698.552 52.1333 705.352 96.8 708.818 119.333C715.218 160.8 716.685 173.467 716.685 185.6C716.685 210.267 721.752 197.467 722.952 170C723.618 153.467 723.218 150 714.818 95.8667C710.018 64.6667 706.018 37.7333 706.018 36.1333C706.018 33.3333 706.285 33.3333 709.485 37.2C711.352 39.4667 713.485 41.3333 714.152 41.3333C716.818 41.3333 714.952 35.8667 707.752 21.8667C698.285 3.6 696.952 1.6 696.152 4.13333Z" fill="current"/>
<path d="M483.351 13.8666C446.151 25.3333 396.684 55.8666 392.951 69.8666C392.284 72.1333 391.884 74.1333 392.018 74.4C392.284 74.6666 397.484 70.8 403.484 65.8666C419.084 53.2 436.151 42.4 453.351 34C468.818 26.5333 487.218 19.4666 488.418 20.6666C488.818 20.9333 487.884 24.8 486.284 28.9333L483.484 36.6666L486.684 32.8C489.884 28.8 495.351 16 495.351 12.5333C495.351 10.2666 495.484 10.1333 483.351 13.8666Z" fill="current"/>
<path d="M370.686 19.0666C369.886 24.4 370.153 25.7333 373.219 29.7333C378.686 36.9333 380.686 44.4 380.686 58.5333C380.819 73.7333 382.553 72.6666 384.953 56.1333C386.153 47.6 386.019 43.6 384.686 37.6C382.819 28.8 378.153 19.0666 374.286 15.6C371.619 13.0666 371.486 13.2 370.686 19.0666Z" fill="current"/>
<path d="M214.152 26.4C213.085 29.0666 213.085 31.6 214.419 36.6666C216.552 44.2666 216.152 46.6666 212.685 46.6666C209.219 46.6666 207.752 44.1333 206.685 36.6666C205.619 27.7333 203.885 25.2 201.619 28.2666C200.285 30 200.152 32.4 201.219 38.6666C202.419 45.6 202.285 47.0666 200.285 49.0666C195.352 53.8666 190.685 45.7333 192.019 34.6666L192.685 28.6666L189.352 32.6666C184.952 37.7333 181.619 44 182.552 45.0666C183.085 45.4666 184.285 44.6666 185.352 43.2C187.085 40.9333 187.219 41.4666 187.352 48.9333C187.352 58 190.019 62.6666 195.352 62.6666C198.152 62.6666 203.352 58.2666 203.352 55.8666C203.352 54.9333 204.685 55.2 206.685 56.5333C211.219 59.6 216.152 59.2 218.552 55.7333C221.085 52.2666 221.352 40.6666 219.219 30.8C217.485 22.6666 216.152 21.4666 214.152 26.4Z" fill="current"/>
<path d="M339.083 25.3332C334.949 28.5332 333.216 32.3999 329.483 47.5999L326.549 59.1999L324.149 53.3333C321.349 45.9999 314.549 38.6666 310.683 38.6666C306.149 38.6666 302.949 43.1999 302.949 49.4666C302.949 55.1999 304.816 57.8666 309.616 59.1999C311.616 59.8666 313.349 59.3333 315.349 57.3333L318.149 54.5333L323.083 64.9333L328.016 75.3333L329.083 68.6666C332.683 45.5999 336.283 38.2666 342.016 41.3333C344.683 42.7999 345.349 42.6666 346.949 40.5333C349.349 37.3332 349.083 29.1999 346.549 25.5999C344.016 21.9999 343.216 21.9999 339.083 25.3332Z" fill="current"/>
<path d="M772.817 42.1333C769.884 45.8667 765.484 59.3333 763.884 69.0667L762.951 74.6667L759.884 68C755.884 59.2 751.217 54.6667 746.284 54.6667C741.484 54.6667 739.484 56.9333 738.417 63.2C736.951 72.4 745.217 78.2667 751.484 72.5333C753.617 70.5333 754.017 70.8 756.951 76.2667C758.551 79.3333 760.817 83.7333 761.884 86C763.751 90 763.751 89.8667 766.017 77.3333C767.217 70.4 768.951 63.0667 769.751 60.9333C771.484 56.6667 774.817 54.9333 777.084 57.2C779.751 59.8667 781.884 58.8 783.217 53.7333C786.551 42 779.217 34 772.817 42.1333Z" fill="current"/>
<path d="M54.1513 50C51.7513 55.8666 49.3513 64 49.0847 68.1333C48.418 75.0666 48.6847 76.1333 51.7513 79.2C55.0847 82.5333 59.618 83.4666 64.018 81.8666C67.218 80.5333 70.1513 74 70.418 66.6666C70.6847 60.8 70.2847 59.6 65.7513 55.0666C62.9513 52.1333 60.6847 48.6666 60.5513 47.3333C60.5513 45.8666 60.018 43.4666 59.4847 42.1333C58.6847 40 57.618 41.7333 54.1513 50ZM60.5513 63.2C62.5513 64.2666 64.9513 66 65.8847 67.2C67.218 68.8 67.0847 69.4666 64.818 70.5333C57.4847 74.5333 49.618 70.8 52.418 64.6666C54.1513 60.8 55.4847 60.6666 60.5513 63.2Z" fill="current"/>
<path d="M651.084 51.8666C650.817 57.4666 651.217 59.0666 654.417 62.9332C659.484 69.0666 662.017 78.3999 662.15 91.8666V103.333L664.284 97.9999C667.484 89.4666 667.217 70.2666 663.617 61.5999C660.817 54.7999 654.284 45.3332 652.417 45.3332C652.017 45.3332 651.35 48.2666 651.084 51.8666Z" fill="current"/>
<path d="M470.418 49.7333C469.352 51.9999 469.485 54.7999 470.818 59.8666C472.818 67.5999 472.152 70.6666 468.685 70.6666C465.352 70.6666 464.818 69.4666 463.218 59.7333C461.618 49.8666 461.085 48.6666 458.552 50.7999C457.085 51.9999 456.818 54.5333 457.485 61.9999C458.285 70.7999 458.152 71.8666 455.752 73.0666C451.218 75.5999 449.352 72.7999 448.685 62.5333L448.018 52.9333L443.752 59.0666C441.352 62.3999 439.352 66.1333 439.352 67.4666C439.352 69.5999 439.485 69.5999 441.352 67.1999C443.085 64.7999 443.218 65.1999 443.352 71.3333C443.352 80.3999 445.752 84.5333 450.952 85.0666C454.018 85.3333 455.752 84.6666 457.752 81.9999C460.418 78.6666 460.685 78.5333 464.552 80.5333C469.085 82.9333 474.418 81.7333 475.885 77.9999C478.018 72.3999 475.485 46.6666 472.818 46.6666C472.285 46.6666 471.085 47.9999 470.418 49.7333Z" fill="current"/>
<path d="M1416.15 57.0666C1412.95 60.6666 1409.08 71.3333 1407.22 81.8666L1405.75 90.7999L1402.42 83.7333C1398.02 74.1333 1394.55 70.6666 1389.22 70.6666C1383.75 70.6666 1381.35 73.7333 1381.35 80.9333C1381.35 85.3333 1382.02 87.3333 1383.88 88.7999C1387.48 91.3333 1393.62 91.1999 1395.08 88.3999C1396.28 86.3999 1396.82 86.7999 1399.22 90.7999C1400.82 93.3333 1402.68 97.5999 1403.62 100.267C1404.42 103.067 1405.48 105.333 1406.02 105.333C1406.55 105.333 1407.62 100.133 1408.42 93.8666C1410.82 75.7333 1414.42 70.5333 1422.28 73.8666C1425.48 75.3333 1428.02 66.3999 1426.42 59.9999C1424.95 54.3999 1420.02 52.9332 1416.15 57.0666Z" fill="current"/>
<path d="M633.749 68.6666C631.882 72.1332 631.882 73.4666 633.482 78.6666C635.882 86.6666 635.749 88.9332 633.082 89.9999C629.749 91.1999 626.016 86.1332 626.016 80.6666C626.016 78.1332 625.349 74.5332 624.682 72.5332C622.282 66.2666 620.016 70.9332 620.016 82.3999C620.016 91.3332 619.749 92.6666 617.482 93.0666C613.616 93.8666 612.016 91.0666 611.349 81.5999L610.682 72.6666L606.416 78.5332C604.016 81.7332 602.016 85.5999 602.016 87.1999C602.149 89.9999 602.149 89.9999 604.016 87.4666C605.882 85.0666 606.016 85.3332 606.016 91.4666C606.016 100.267 608.416 104.533 613.349 105.067C616.416 105.467 618.016 104.667 620.816 101.467C623.882 97.7332 624.549 97.4666 626.016 99.3332C626.949 100.4 629.749 101.333 632.282 101.333C636.282 101.333 637.082 100.667 638.949 96.3999C641.216 90.9332 640.682 80.9332 637.482 70.3999L635.882 64.6666L633.749 68.6666Z" fill="current"/>
<path d="M332.684 95.4666C324.417 97.4666 320.284 101.333 318.151 108.933C317.351 111.6 316.951 114 317.084 114.133C317.351 114.4 319.884 113.733 322.684 112.667C328.551 110.533 334.017 110.133 334.017 111.6C334.017 114 328.684 120.267 322.951 124.8C319.484 127.467 316.951 130 317.217 130.267C318.684 131.867 332.151 122.8 338.017 116.4C343.751 110.267 348.684 100.267 348.684 95.0666C348.684 92.9332 342.551 93.0666 332.684 95.4666Z" fill="current"/>
<path d="M764.019 96.5333C760.819 98.8 754.419 110.133 755.619 111.333C756.019 111.867 757.886 111.2 759.753 110.133C762.019 108.533 763.886 108.267 766.153 109.067C769.086 110.267 768.953 110.533 762.286 113.333C749.353 118.933 748.019 123.467 752.686 145.467C754.286 152.4 756.286 163.067 757.219 169.333L759.086 180.667L759.219 168.667C759.353 162 758.419 150.533 757.086 143.067C755.219 131.867 755.086 129.2 756.553 127.467C757.619 126.267 763.219 123.867 769.219 122C779.086 118.933 780.286 118.267 783.086 113.2C786.153 107.867 786.153 107.733 783.753 105.067C781.619 102.667 769.086 94.6666 767.353 94.6666C766.953 94.6666 765.486 95.4666 764.019 96.5333Z" fill="current"/>
<path d="M20.0176 103.867C14.1509 105.067 8.55089 106.533 7.61756 107.067C5.35089 108.533 0.684226 118 0.684226 121.067C0.684226 123.467 1.08423 123.6 5.75089 121.867C8.41756 120.933 12.4176 120.133 14.4176 120H18.1509L15.7509 124.267C14.4176 126.533 10.2842 130.8 6.41756 133.867C2.55089 136.8 -0.249107 139.467 0.0175593 139.733C1.08423 140.933 14.6842 132.667 19.4842 127.867C26.2842 121.067 35.6176 101.067 31.8842 101.467C31.2176 101.6 25.8842 102.667 20.0176 103.867Z" fill="current"/>
<path d="M1441.62 107.333C1441.22 108.267 1440.55 111.733 1440.02 115.067C1438.95 122.267 1439.22 122.933 1457.89 159.867C1480.69 205.067 1482.02 213.333 1465.89 213.333C1452.82 213.333 1447.75 207.733 1449.35 195.067C1450.55 185.6 1448.55 186.533 1440.15 199.467C1431.35 212.933 1426.42 215.2 1420.02 208.667C1417.35 206.133 1416.69 204.133 1416.69 198.667V191.733L1407.09 200.667C1395.49 211.2 1389.35 214.667 1380.15 215.6C1369.75 216.533 1368.02 214.667 1368.02 202.4V192.533L1356.69 195.467C1338.02 200.267 1304.29 207.6 1277.35 212.533C1156.95 234.667 1046.55 238.4 944.019 223.867C877.486 214.533 823.353 197.467 804.686 180C802.419 177.867 800.286 176 800.019 176C799.886 176 798.686 178.4 797.353 181.333C796.019 184.267 794.686 186.667 794.419 186.667C794.153 186.667 791.619 185.467 788.686 184C785.753 182.533 781.886 181.333 780.019 181.333C770.819 181.333 757.619 192 738.019 215.333C716.286 241.333 706.286 249.333 696.019 249.333C692.419 249.333 690.153 248.267 687.086 245.2C683.086 241.2 682.953 240.933 683.753 231.067C684.286 223.6 685.219 220.267 687.219 218.133C691.886 213.2 694.019 206 694.019 195.6C694.019 184.267 691.753 176 684.553 159.867C681.619 153.467 679.353 147.867 679.353 147.467C679.353 146.933 680.819 147.6 682.686 148.8C685.753 150.8 686.019 150.8 686.019 148.533C686.019 146.667 675.086 128.267 671.219 123.6C670.686 122.933 669.619 125.6 668.819 129.467C666.419 140.4 671.219 158.667 682.819 183.467C686.019 190.4 688.686 196.667 688.686 197.333C688.686 199.467 681.886 203.867 677.353 204.8C668.019 206.533 659.219 200.533 654.553 189.467C652.019 183.467 650.686 176.933 648.019 155.867C646.819 146.533 644.686 136.667 642.953 132.8L640.153 126.267L637.619 132.133C634.419 139.6 634.419 140.933 638.819 164.667C641.753 181.333 642.153 185.067 640.819 189.467C636.153 204.933 616.286 214.4 606.153 206C599.619 200.4 598.553 192.267 601.353 167.733C602.553 156.533 603.353 145.6 603.219 143.333L602.686 139.333L597.086 144.533C589.753 151.067 586.019 159.067 579.219 182.667C572.286 206.933 571.086 209.333 566.153 209.333C556.819 209.333 551.886 194.533 552.953 169.6C553.219 162.133 553.086 156 552.553 156C550.953 156 550.153 161.333 549.219 177.333C548.286 195.333 549.753 205.067 555.086 215.733C559.619 224.667 564.019 227.867 569.619 226C575.086 224 578.686 215.6 583.086 193.333C589.619 160.933 597.619 147.867 593.219 176.8C590.553 194.667 591.219 205.333 595.753 215.2C600.019 224.533 605.219 228 615.086 228C623.219 228 630.553 225.333 635.619 220.4C639.619 216.533 644.686 204.667 644.686 198.933C644.819 196.133 645.353 196.8 647.219 202.133C648.553 206 651.086 210.933 652.819 213.2C658.419 220.8 672.419 225.067 679.486 221.333C681.886 220 682.019 220.267 681.086 225.6C677.086 247.467 684.019 264.933 697.486 267.467C707.753 269.333 721.086 258.933 748.686 227.333C762.819 211.333 773.219 202.133 778.953 200.667C780.686 200.267 784.419 200.533 787.353 201.333C791.753 202.533 792.819 203.467 794.019 207.733C794.686 210.4 795.353 214.4 795.353 216.667C795.353 224.933 798.153 231.2 804.819 237.733C808.419 241.2 811.886 244 812.553 244C813.219 244 814.153 237.467 814.686 229.467L815.619 214.933L824.153 218.667C858.819 234.267 926.419 247.467 998.019 252.667C1043.49 256 1119.22 254.667 1162.02 249.867C1225.09 242.8 1276.15 233.2 1330.69 218C1344.69 214 1357.09 210.533 1358.42 210C1360.42 209.2 1360.69 209.867 1360.69 215.733C1360.69 224.533 1362.69 228.667 1368.02 231.333C1380.42 237.067 1399.49 229.733 1404.69 217.2L1406.42 213.2L1408.69 218.4C1412.29 226.267 1417.49 229.733 1424.42 228.933C1431.22 228.133 1436.02 224.133 1439.09 216.8L1441.09 211.733L1443.09 215.467C1447.35 223.867 1454.69 229.333 1461.75 229.333C1467.09 229.333 1476.82 220.533 1481.22 211.733C1489.22 195.6 1484.15 177.333 1462.15 142.4C1457.75 135.2 1454.02 128.8 1454.02 128C1454.02 127.2 1455.62 127.467 1458.02 128.667C1462.82 131.2 1463.62 131.2 1463.09 128.8C1462.42 125.467 1442.29 105.467 1441.62 107.333ZM810.019 215.2C810.019 216.8 809.486 218.8 808.953 219.733C807.486 222 804.286 218.4 802.153 212.133C799.486 204.133 800.286 203.067 805.353 208C807.886 210.533 810.019 213.733 810.019 215.2Z" fill="current"/>
<path d="M1403.49 131.333C1394.69 150 1394.82 160.933 1404.02 164C1410.15 166 1414.69 163.6 1417.22 157.067C1420.95 148.133 1420.02 142.933 1414.15 137.2C1410.15 133.467 1408.69 131.067 1408.42 127.2L1407.89 122L1403.49 131.333ZM1411.09 146.667C1416.15 149.867 1416.15 152 1410.82 153.733C1403.62 156.133 1397.75 151.733 1400.95 146.133C1402.55 143.333 1405.75 143.467 1411.09 146.667Z" fill="current"/>
<path d="M325.486 157.333C323.352 161.733 321.886 165.6 322.152 165.867C323.486 167.067 339.619 174.8 340.019 174.4C340.819 173.6 347.352 158.267 347.086 158C345.486 156.667 331.486 149.333 330.552 149.333C329.886 149.333 327.619 152.933 325.486 157.333Z" fill="current"/>
<path d="M72.2832 165.6C70.2832 170 68.8165 173.867 68.9498 174C69.2165 174.133 72.8165 176.133 76.9498 178.533L84.6832 182.8L81.2165 189.6C78.4165 195.067 78.1498 196.667 79.6165 197.6C82.8165 199.733 93.8832 205.333 95.0832 205.333C96.1498 205.333 103.35 191.6 103.35 189.6C103.35 188.933 99.7498 186.8 95.3498 184.667C90.9498 182.533 87.4832 180.533 87.6165 180.133C91.7498 172.267 94.2832 166.533 93.8832 166.133C93.2165 165.467 76.8165 157.333 76.4165 157.333C76.1498 157.467 74.4165 161.067 72.2832 165.6Z" fill="current"/>
<path d="M155.884 171.867C152.017 174.267 147.484 181.867 149.084 183.467C149.484 183.867 151.217 183.333 152.951 182.133C156.151 179.867 162.951 179.333 165.751 181.2C167.084 182 165.617 183.733 160.684 187.467C148.817 196.533 143.617 206.933 146.017 216.133C148.017 223.467 152.817 226.667 161.751 226.667C171.351 226.667 178.951 222.933 186.417 214.667C191.617 208.933 203.217 189.333 201.484 189.333C201.084 189.333 198.284 192.667 195.217 196.8C184.151 211.867 175.351 216.933 163.217 215.6C149.884 214 147.484 206.4 157.084 196.933C160.284 193.867 166.151 189.6 170.151 187.467C176.951 183.867 187.351 175.2 187.351 173.2C187.351 172 172.017 169.333 165.217 169.333C162.417 169.333 158.151 170.533 155.884 171.867Z" fill="current"/>
<path d="M458.285 187.6C456.818 189.733 454.685 193.333 453.352 195.867C448.285 205.733 430.818 221.333 412.018 232.667C403.085 238 404.552 238.533 416.952 234.667C429.885 230.667 437.352 225.067 447.085 211.733C455.485 200.267 455.618 200.133 458.818 202.267C462.685 204.8 468.152 203.6 469.352 200C470.552 196.267 467.618 186.933 464.685 185.333C461.218 183.467 461.218 183.467 458.285 187.6ZM463.885 194.133C465.085 194.533 466.018 195.467 466.018 196.133C466.018 198 462.818 197.6 459.885 195.333C457.752 193.733 457.618 193.467 459.618 193.333C460.818 193.333 462.685 193.733 463.885 194.133Z" fill="current"/>
<path d="M271.484 202.8C269.884 204.933 266.817 210.533 264.551 215.067C257.884 229.333 259.884 240 269.217 240C274.817 240 277.751 237.733 279.351 232.267C281.217 225.333 281.084 224.533 278.151 227.2C276.684 228.533 274.151 229.333 272.417 229.067C267.884 228.4 267.617 220.267 272.017 208.667C273.884 203.733 275.217 199.333 274.951 199.2C274.684 198.933 273.084 200.533 271.484 202.8Z" fill="current"/>
<path d="M545.352 222.667C544.952 223.467 544.952 224.667 545.352 225.333C545.885 226.133 544.952 227.733 543.485 229.067C538.952 232.8 536.552 238.667 538.285 241.867C539.085 243.467 540.419 245.067 541.219 245.6C543.219 246.933 538.952 251.2 528.685 258C518.419 264.8 507.885 269.333 491.885 274C485.485 275.867 479.885 277.733 479.485 278C478.419 279.067 492.952 278.667 500.685 277.467C517.352 274.667 532.019 266.4 541.352 254.4L546.019 248.4L551.485 249.867C556.552 251.2 557.219 251.067 559.485 248.133C563.085 243.733 562.685 240.267 557.219 232.4C552.152 224.933 546.685 220.533 545.352 222.667ZM550.019 235.2C550.019 236.133 549.219 237.733 548.285 238.533C546.019 240.267 541.085 237.2 542.552 234.933C543.885 232.667 550.019 232.933 550.019 235.2ZM555.885 240.667C558.019 244 557.352 244.667 553.485 243.2C551.219 242.4 550.419 237.333 552.552 237.333C553.219 237.333 554.685 238.8 555.885 240.667Z" fill="current"/>
<path d="M778.284 231.6C776.817 233.733 774.684 237.333 773.35 239.867C768.55 249.467 752.417 263.733 732.017 276.533C724.684 281.2 724.417 281.467 728.684 280.667C746.15 277.2 757.084 270 767.75 254.933L775.617 244L779.484 246.133C788.95 250.933 793.217 241.733 786.55 230.933C784.017 227.067 781.35 227.2 778.284 231.6ZM785.35 238.8C786.817 241.067 785.617 241.2 781.35 239.333L777.35 237.6L780.95 237.467C782.95 237.333 784.95 238 785.35 238.8Z" fill="current"/>
<path d="M70.8169 233.733C66.1502 239.733 64.1502 245.333 66.6835 245.333C67.6169 245.333 68.9502 244.667 69.3502 244C70.2835 242.533 75.7502 242.133 77.2169 243.6C77.7502 244.133 74.5502 246.133 70.1502 248.133C63.0835 251.333 62.0169 252.4 60.5502 257.2C59.2169 261.867 59.4835 265.2 63.0835 284.267C65.4835 296.267 67.6169 307.467 67.8835 309.333C68.1502 311.2 68.4169 306.933 68.5502 300C68.5502 292.933 67.7502 282.533 66.5502 276.4C65.3502 270.4 64.6835 264.533 65.0835 263.467C66.1502 260.8 74.4169 256.8 82.6835 254.8C88.6835 253.333 89.8835 252.533 92.6835 247.2L96.0169 241.2L92.6835 238.533C86.0169 233.2 79.3502 229.333 76.8169 229.333C75.3502 229.333 72.6835 231.333 70.8169 233.733Z" fill="current"/>
<path d="M630.149 235.467C628.683 236.533 626.283 239.467 625.083 241.733C622.549 246.533 618.149 263.067 617.883 268C617.883 270.8 617.349 270.267 615.216 265.333C613.749 262.133 611.083 257.467 609.216 255.067C606.416 251.467 604.949 250.667 600.816 250.667C596.683 250.667 595.483 251.333 594.283 254C589.349 264.8 598.283 275.6 606.149 268.533C608.416 266.533 608.816 267.067 613.483 276.267L618.549 286L619.616 278.667C621.749 264.4 623.616 257.333 625.883 254.4C628.016 251.867 628.816 251.6 631.749 252.933C634.283 254.133 635.483 254.133 636.416 252.933C640.283 248 639.749 237.067 635.483 234.8C633.749 233.867 632.283 234 630.149 235.467Z" fill="current"/>
<path d="M1351.48 240.133C1350.02 244.8 1349.48 245.467 1346.28 245.067C1343.48 244.8 1342.55 243.867 1342.28 240.933C1341.75 236.267 1339.88 236.4 1337.35 241.2C1334.55 246.8 1328.95 250.667 1323.88 250.667C1317.22 250.667 1315.35 249.467 1315.35 245.2C1315.35 242.4 1314.68 241.333 1313.08 241.333C1311.88 241.333 1300.28 246.667 1287.48 253.2C1254.55 269.867 1235.75 276 1217.88 276C1213.88 276 1211.35 276.533 1211.35 277.6C1211.35 279.733 1235.08 278 1249.75 274.8C1263.48 271.733 1273.48 268.133 1293.22 258.8C1309.08 251.333 1311.35 250.8 1311.35 254.4C1311.35 262.533 1326.95 261.867 1334.55 253.467L1337.08 250.667L1340.15 253.467C1341.88 255.067 1344.42 256 1346.15 255.733C1350.68 255.067 1355.35 247.467 1355.35 240.533C1355.35 233.2 1353.62 233.067 1351.48 240.133Z" fill="current"/>
<path d="M1446.82 249.467C1444.95 253.867 1443.35 257.733 1443.35 258C1443.35 258.667 1457.88 266.667 1459.35 266.667C1460.02 266.667 1462.42 263.067 1464.68 258.667L1468.68 250.667L1459.48 246.133L1450.28 241.467L1446.82 249.467Z" fill="current"/>
<path d="M357.616 248.267C349.483 259.2 345.083 274.667 348.55 280.933C352.15 287.867 362.95 285.333 365.75 276.8C367.616 270.8 367.083 269.467 363.883 272.533C362.683 273.867 360.416 274.667 358.816 274.4C354.416 273.733 354.283 263.867 358.55 253.2C360.416 248.667 361.75 244.667 361.483 244.4C361.216 244 359.483 245.867 357.616 248.267Z" fill="current"/>
</svg>
